<?xml version="1.0" encoding="utf-8"?>
<!-- Generator: Adobe Illustrator 19.0.0, SVG Export Plug-In . SVG Version: 6.00 Build 0)  -->
<svg version="1.1" id="Layer_1" xmlns="http://www.w3.org/2000/svg" xmlns:xlink="http://www.w3.org/1999/xlink" x="0px" y="0px"
	 viewBox="-166.9 202.2 493.9 434.9" style="enable-background:new -166.9 202.2 493.9 434.9;" xml:space="preserve">
<style type="text/css">
	.st0{fill:#BB201E;}
</style>
<g>
	<path class="st0" d="M79.9,246.9C6.5,187-61.2,187.3-121.6,247.7c-60,59.4-60.5,156.1-1.1,216.1c0.4,0.4,0.7,0.7,1.1,1.1l0.6,0.6
		C-27.2,550,19.9,592.3,43.4,613.4L64.2,632c3.5,3.6,8,6.1,13,7.2c1.1,0.2,2.2,0.3,3.3,0.4c1.9,0,3.8-0.5,5.5-1.5l2-1l0,0
		c9.6-7.3,18.9-15.1,27.7-23.4c21.7-19.2,67.9-60.3,165.2-147.7l0.7-0.6c60-59.3,60.5-156.1,1.2-216c-0.4-0.4-0.8-0.8-1.2-1.2
		C207.7,174.1,133.1,203.7,79.9,246.9z"/>
</g>
</svg>
